<svg xmlns="http://www.w3.org/2000/svg" viewBox="0 0 1440 280"><path fill="#ffffff" fill-opacity="1" d="M0,192L16,186.7C32,181,64,171,96,186.7C128,203,160,245,192,240C224,235,256,181,288,149.3C320,117,352,107,384,117.3C416,128,448,160,480,170.7C512,181,544,171,576,154.7C608,139,640,117,672,133.3C704,149,736,203,768,202.7C800,203,832,149,864,122.7C896,96,928,96,960,106.7C992,117,1024,139,1056,154.7C1088,171,1120,181,1152,176C1184,171,1216,149,1248,165.3C1280,181,1312,235,1344,245.3C1376,256,1408,224,1424,208L1440,192L1440,0L1424,0C1408,0,1376,0,1344,0C1312,0,1280,0,1248,0C1216,0,1184,0,1152,0C1120,0,1088,0,1056,0C1024,0,992,0,960,0C928,0,896,0,864,0C832,0,800,0,768,0C736,0,704,0,672,0C640,0,608,0,576,0C544,0,512,0,480,0C448,0,416,0,384,0C352,0,320,0,288,0C256,0,224,0,192,0C160,0,128,0,96,0C64,0,32,0,16,0L0,0Z"></path></svg>